<svg xmlns="http://www.w3.org/2000/svg" width="512" height="512" viewBox="0 0 512 512" fill="none">
  <rect width="512" height="512" fill="#FFFFFF"/>
  <svg x="56" y="56" width="400" height="400" viewBox="0 0 89 92" preserveAspectRatio="xMidYMid meet">
    <path d="M4.10364 91.4189C4.67164 91.4189 47.0446 91.4189 47.6126 91.4189C74.6496 91.0982 99.9825 58.808 78.3984 36.6753C78.3984 40.9521 73.6272 44.9082 66.0159 47.5812C55.5647 51.3235 40.4558 54.9588 30.459 57.3111C24.6653 58.701 20.1213 60.8395 16.7133 65.4371C14.1005 69.0724 1.15002 86.6075 1.15002 86.6075C-0.553983 89.3874 0.809223 91.4189 4.10364 91.4189Z" fill="#00CC99"/>
    <path d="M84.872 0C84.304 0 41.8174 0 41.2494 0C14.326 0.320763 -11.1205 32.7179 10.5772 54.7436C10.5772 50.4668 15.3484 46.5107 22.9597 43.8377C33.4109 40.0954 48.5198 36.4601 58.5166 34.1078C64.3103 32.7179 68.8543 30.5794 72.2623 25.9818C74.8751 22.3465 87.8256 4.81145 87.8256 4.81145C89.5296 2.0315 88.28 0.106921 84.9856 0.106921L84.872 0Z" fill="#00CC99"/>
  </svg>
</svg>
